<svg xmlns="http://www.w3.org/2000/svg" width="257.287" height="100.781" viewBox="0 0 257.287 100.781"><defs><style>.a{fill:#b2b2b1;}.b{fill:#f0f0f0;}.c{fill:#009edd;}.d,.e{fill:#fff;}.d,.f,.g{fill-rule:evenodd;}.f{fill:#009ddd;}.g{fill:#09297e;}</style></defs><path class="a" d="M179.021,308.808l1.711.005h1.719l253.819.435.038-22.363-257.246-.446Z" transform="translate(-179.021 -208.468)"/><path class="a" d="M428.409,234.635h0c-3.747-2.95-8.53-4.311-13.9-4.311a20.656,20.656,0,0,0-6.4.953l-.024.005a17.871,17.871,0,0,0-6.3,3.584,16.578,16.578,0,0,0-1.586,1.574,4.62,4.62,0,0,0-1.51-1.3,171.649,171.649,0,0,0-41.623-15.915,179.274,179.274,0,0,0-95.959,4.043A199.085,199.085,0,0,0,233.158,234.8l-.025.009-.026.022a4.493,4.493,0,0,0-.825.541l.013-4.691-1.718-.01H228.86l-12.8-.016-.015,8.327a15.3,15.3,0,0,0-4.021-4.732c-3.745-2.931-8.53-4.3-13.907-4.3a20.434,20.434,0,0,0-6.407.966H191.7a17.769,17.769,0,0,0-6.3,3.578A15.451,15.451,0,0,0,179.98,246.5a25.712,25.712,0,0,0,1.01,7.893,12.366,12.366,0,0,0,.56,1.453,15.252,15.252,0,0,0,5.417,6.22l5.448,3.748-12.88-.027-.009,8.109a21.921,21.921,0,0,0,.991,6.856l.005.021a16.138,16.138,0,0,0,4.163,6.726c3.526,3.4,8.392,4.952,13.937,4.946a28.946,28.946,0,0,0,8.954-1.232,15.976,15.976,0,0,0,6.095-3.468,14.009,14.009,0,0,0,2.288-2.784l-.008,6.307,14.08.017,16.235.031,0-3.428.046-28.227a2.118,2.118,0,0,1,.485-1.54.872.872,0,0,1,.426-.31,1.331,1.331,0,0,1,.306-.038c.917.046.761.057,1.08.313a1.025,1.025,0,0,1,.245.45,3.745,3.745,0,0,1,.144,1.131l-.055,31.658,16.142.023.059-31.654c.043-1.054.194-1.208.423-1.486a.905.905,0,0,1,.4-.231,3.084,3.084,0,0,1,.834-.108c.124.005.208.016.246.021l.093.107a1.4,1.4,0,0,1,.212.435,3.938,3.938,0,0,1,.157,1.268l-.049,31.649,1.716.01,14.366.024,14.043.028.059-31.659a2.075,2.075,0,0,1,.489-1.542.776.776,0,0,1,.419-.3,1.369,1.369,0,0,1,.315-.048c.917.05.745.056,1.081.317a1.179,1.179,0,0,1,.232.448,3.816,3.816,0,0,1,.142,1.137l-.053,31.655,16.151.02.054-31.647c.038-1.051.191-1.208.416-1.488a.936.936,0,0,1,.4-.234,3.215,3.215,0,0,1,.848-.1,1.407,1.407,0,0,1,.239.022c.021.02.039.045.087.091a1.291,1.291,0,0,1,.214.444,4.131,4.131,0,0,1,.167,1.273l-.056,31.642,1.717.011,1.715.011,12.652.014.011-6.906a14.784,14.784,0,0,0,1.241,2.218c2.581,3.851,7.03,5.684,11.969,5.642h1.7a17.068,17.068,0,0,0,5.378-.779l.043-.017a12.619,12.619,0,0,0,6.543-4.826,16.211,16.211,0,0,0,1.375-2.425l-.013,7.149,16.232.023.054-31.656c.035-1.219.246-1.343.328-1.441a1.069,1.069,0,0,1,.412-.206l.027-.011a4.626,4.626,0,0,1,1.356-.169.884.884,0,0,1,.26.033s.065.025.249.234a1.287,1.287,0,0,1,.253.473,3.648,3.648,0,0,1,.139,1.1l-.045,31.645,1.708.008,1.717,0,12.782.026.014-6.774a15.809,15.809,0,0,0,2.473,3.059c3.525,3.4,8.389,4.952,13.93,4.943a29.327,29.327,0,0,0,8.963-1.229l.023-.005a16.126,16.126,0,0,0,6.066-3.461c3.646-3.411,5.173-8.47,5.168-14.389a23.175,23.175,0,0,0-.943-7.1,12.269,12.269,0,0,0-.855-2.054,20.42,20.42,0,0,0-6.644-6.818l-4.541-3.151,12,.014.02-7.693a16.881,16.881,0,0,0-.771-5.155l-.012-.013a14.769,14.769,0,0,0-5.071-7.131m-81.165,38.155h0l1.716.007.017-9.075c0-.621.008-1.188.025-1.723.014.536.022,1.1.022,1.723l-.013,9.069c0,.587-.014,1.13-.028,1.643-.023-.509-.03-1.056-.023-1.637Zm2.4-15.268-.053-.039h-.007Zm12.225-7.546c-2.593-3.9-7.049-5.814-12-5.756l-1.679,0A18.548,18.548,0,0,0,343,244.8c-.084.025-.179.052-.28.087a.123.123,0,0,0-.034.006,12.045,12.045,0,0,0-3.5,1.809,14.245,14.245,0,0,0-4.66,6.379c-.079-.31-.162-.623-.256-.928l-.005,0a12.567,12.567,0,0,0-3.224-5.161,13.364,13.364,0,0,0-9.563-3.77,15.2,15.2,0,0,0-4.626.693l-.013.005a12.794,12.794,0,0,0-2.768,1.266,12.249,12.249,0,0,0-1.677,1.2,12.2,12.2,0,0,0-1.435-1.065,14.138,14.138,0,0,0-7.777-2.126,14.377,14.377,0,0,0-4.565.7,14.843,14.843,0,0,0-2.024.832l-15.146-.022-.015,4.281a12.5,12.5,0,0,0-1.73-2.09,13.306,13.306,0,0,0-9.546-3.762,14.985,14.985,0,0,0-4.649.7,13.47,13.47,0,0,0-2.769,1.268,13.014,13.014,0,0,0-1.677,1.2,12.572,12.572,0,0,0-1.434-1.067,14.138,14.138,0,0,0-7.778-2.129,14.834,14.834,0,0,0-4.562.708,14.329,14.329,0,0,0-2.028.827l-12.988-.021.005-1.844a4.866,4.866,0,0,0,3.5,1.082l.149.3,1.466-.738c.01,0,.013-.005.022-.017l1.553-.745-.012-.017a189.7,189.7,0,0,1,25.11-10.234,169.873,169.873,0,0,1,90.8-3.84,161.9,161.9,0,0,1,39.3,15.04,4.764,4.764,0,0,0,2.422.542,16.271,16.271,0,0,0-.208,2.732c0,.769.018,1.5.053,2.222a12.6,12.6,0,0,0-1.673-2,13.334,13.334,0,0,0-9.543-3.762,15.312,15.312,0,0,0-4.775.744,14.29,14.29,0,0,0-1.972.79l-15.26-.022-.013,7.516a15.542,15.542,0,0,0-1.323-2.384m-145.859,12.6a23.441,23.441,0,0,0-5.615-5.193l-4.538-3.155,10.166.024Zm-14.83-15.588,0,3.992L199.9,250.1c-.844-.58-1.5-1.023-1.942-1.351-.226-.152-.4-.28-.518-.369-.04-.024-.069-.055-.091-.068a2.344,2.344,0,0,1-.278-.28,1.5,1.5,0,0,1-.3-.548,4.608,4.608,0,0,1-.158-1.368c.056-1.012.154-.973.338-1.208a1.127,1.127,0,0,1,.424-.226,3.475,3.475,0,0,1,1.048-.133,2.734,2.734,0,0,1,2.092.757,1.91,1.91,0,0,1,.557.844,2.823,2.823,0,0,1,.113.842m.369,26.128a6.084,6.084,0,0,1,.253,1.9c-.019,1.609-.371,2.1-.637,2.384a1.833,1.833,0,0,1-.753.413,5.458,5.458,0,0,1-1.759.218,1.642,1.642,0,0,1-.718-.131,2.3,2.3,0,0,1-.663-.6,3.652,3.652,0,0,1-.636-1.178,4.659,4.659,0,0,1-.209-1.46l.01-6.082,2.7,1.853a6.744,6.744,0,0,1,2.152,2.069,3.5,3.5,0,0,1,.265.618M415.518,270.8a6.69,6.69,0,0,1,2.154,2.078,3.142,3.142,0,0,1,.266.619,6.148,6.148,0,0,1,.256,1.9c-.025,1.6-.369,2.1-.639,2.381a1.787,1.787,0,0,1-.757.416,5.672,5.672,0,0,1-1.736.226,1.759,1.759,0,0,1-.734-.139,2.205,2.205,0,0,1-.676-.611,3.713,3.713,0,0,1-.62-1.165,4.72,4.72,0,0,1-.213-1.461l.005-6.091Zm-16.865-13.24a15.808,15.808,0,0,0,4.711,4.887l5.439,3.748-10.165-.023Zm15.183-8.805c-.044-.029-.073-.047-.1-.068-.116-.112-.213-.207-.277-.28a1.474,1.474,0,0,1-.3-.524,4.9,4.9,0,0,1-.162-1.394c.053-1.009.148-.975.338-1.207a1.034,1.034,0,0,1,.425-.223,3.351,3.351,0,0,1,1.043-.137,2.812,2.812,0,0,1,2.1.757,1.911,1.911,0,0,1,.549.844,2.7,2.7,0,0,1,.118.84l-.011,3.99-1.264-.88q-1.284-.872-1.95-1.35c-.227-.156-.407-.285-.509-.369" transform="translate(-178.978 -214.545)"/><path class="b" d="M180.6,306.95l1.719.013,252.109.436.029-18.942-253.82-.433Z" transform="translate(-178.887 -208.334)"/><path class="b" d="M228.443,240.353a3.145,3.145,0,0,0,3.73,1.532,2.836,2.836,0,0,0,.393-.164l-.753-1.545.771,1.534a191.831,191.831,0,0,1,26.845-11.073,171.524,171.524,0,0,1,91.724-3.88,163.909,163.909,0,0,1,39.706,15.2,3.136,3.136,0,0,0,4.169-1.27,3.1,3.1,0,0,0,.2-2.4,3.064,3.064,0,0,0-1.463-1.767,170.262,170.262,0,0,0-41.193-15.766,177.439,177.439,0,0,0-48.875-4.418,175.609,175.609,0,0,0-46.164,8.436A196.27,196.27,0,0,0,229.824,236.2a3.12,3.12,0,0,0-1.55,3.732,3.9,3.9,0,0,0,.169.421" transform="translate(-174.87 -214.411)"/><path class="b" d="M410.357,234.619c-3.39-2.66-7.752-3.944-12.846-3.944a19.021,19.021,0,0,0-5.885.874,16.173,16.173,0,0,0-5.7,3.247,13.754,13.754,0,0,0-4.841,10.711,24.253,24.253,0,0,0,.934,7.375,10.827,10.827,0,0,0,.485,1.266,13.569,13.569,0,0,0,4.83,5.518l12.16,8.357a8.326,8.326,0,0,1,2.678,2.654,4.874,4.874,0,0,1,.4.922,7.954,7.954,0,0,1,.338,2.43,4.8,4.8,0,0,1-1.147,3.61,3.691,3.691,0,0,1-1.424.82,7.585,7.585,0,0,1-2.307.31,3.218,3.218,0,0,1-2.7-1.378,5.363,5.363,0,0,1-.934-1.736,6.45,6.45,0,0,1-.292-1.989l.007-7.114-13.469-.031-.015,6.393a20.563,20.563,0,0,0,.916,6.33,14.33,14.33,0,0,0,3.722,6.029c3.139,3.025,7.51,4.467,12.745,4.462a27.327,27.327,0,0,0,8.44-1.14l.009-.008a14.229,14.229,0,0,0,5.429-3.081c3.178-2.969,4.621-7.477,4.627-13.135a21.326,21.326,0,0,0-.863-6.569,11.073,11.073,0,0,0-.732-1.786,18.827,18.827,0,0,0-6.113-6.206l-10.489-7.29c-.848-.577-1.5-1.026-1.965-1.353-.231-.164-.419-.3-.547-.4-.063-.048-.112-.081-.15-.107a.153.153,0,0,0-.03-.029,4.946,4.946,0,0,1-.447-.445,3.1,3.1,0,0,1-.644-1.123l-.009-.049a5.989,5.989,0,0,1-.242-1.888,3.108,3.108,0,0,1,.859-2.439,2.806,2.806,0,0,1,1.087-.621,5.22,5.22,0,0,1,1.581-.218,4.507,4.507,0,0,1,3.245,1.2,3.73,3.73,0,0,1,1.032,1.586,4.345,4.345,0,0,1,.2,1.373l-.008,5.527,13.261.021.01-5.983a14.7,14.7,0,0,0-.694-4.618,13.081,13.081,0,0,0-4.5-6.326" transform="translate(-161.98 -213.181)"/><path class="b" d="M369.656,287.466l1.716.008,11.064.015.061-33.13a12.76,12.76,0,0,0-.586-3.937,10.753,10.753,0,0,0-2.8-4.462,11.579,11.579,0,0,0-8.332-3.286,13.491,13.491,0,0,0-6.578,1.655q-.478.254-.91.539l.005-.661-12.823-.027-.078,43.252,12.8.024.05-29.938a3.469,3.469,0,0,1,.869-2.682,2.707,2.707,0,0,1,1.056-.594,6.272,6.272,0,0,1,1.955-.26,2.132,2.132,0,0,1,1.767.847,3.011,3.011,0,0,1,.589,1.07,5.121,5.121,0,0,1,.223,1.634Z" transform="translate(-164.535 -212.167)"/><path class="b" d="M336.031,288.264l1.695.009a15.593,15.593,0,0,0,4.848-.7l.031-.015a10.885,10.885,0,0,0,5.673-4.172c2.248-3.245,3.222-7.781,3.244-13.612l.01-7.867a30.676,30.676,0,0,0-1.247-9.412,15.65,15.65,0,0,0-1.911-4c-2.242-3.351-6.028-5.03-10.571-5l-1.693-.01a17.285,17.285,0,0,0-4.694.526c-.077.02-.162.044-.259.078a10.481,10.481,0,0,0-3.021,1.553,13.005,13.005,0,0,0-4.38,6.42,30.648,30.648,0,0,0-1.375,9.8l-.009,7.864a31.878,31.878,0,0,0,1.276,9.811,14.689,14.689,0,0,0,1.827,3.842c2.217,3.3,5.994,4.914,10.557,4.891m-.258-11.815a21.494,21.494,0,0,1-.6-6.106l.013-9.068a36.609,36.609,0,0,1,.259-4.695,7.439,7.439,0,0,1,.637-2.36.8.8,0,0,1,.287-.338c.005-.007.005-.007.047-.015a2.427,2.427,0,0,1,.693-.078,2.072,2.072,0,0,1,.482.044c.036.005.064.009.069.018a.912.912,0,0,1,.215.289,3.166,3.166,0,0,1,.182.474,9.851,9.851,0,0,1,.384,1.911,38.592,38.592,0,0,1,.231,4.75l-.021,9.075a32.564,32.564,0,0,1-.3,4.88,6.52,6.52,0,0,1-.706,2.358.9.9,0,0,1-.16.191,2.793,2.793,0,0,1-.6.049.51.51,0,0,1-.4-.137,2.2,2.2,0,0,1-.579-.9c-.044-.116-.085-.223-.124-.346" transform="translate(-166.904 -212.099)"/><path class="b" d="M312.441,287.369l1.719.005,10.937.021.056-33.138a12.652,12.652,0,0,0-.585-3.929,10.913,10.913,0,0,0-2.8-4.479,11.673,11.673,0,0,0-8.353-3.277,13.165,13.165,0,0,0-4.124.615,11.742,11.742,0,0,0-2.4,1.1,11.1,11.1,0,0,0-2.592,2.158,10.046,10.046,0,0,0-2.343-2.042,12.391,12.391,0,0,0-6.846-1.857,12.993,12.993,0,0,0-6.531,1.734c-.234.129-.46.269-.679.412l.011-.617-12.823-.011-.078,43.242,12.8.023.054-29.934a3.859,3.859,0,0,1,.887-2.648,2.618,2.618,0,0,1,1.193-.828,3.166,3.166,0,0,1,.816-.14,2.914,2.914,0,0,1,2.346.833,2.88,2.88,0,0,1,.646,1.117,5.671,5.671,0,0,1,.22,1.673l-.046,29.942,12.714.016.052-29.942a3.6,3.6,0,0,1,.887-2.648,2.575,2.575,0,0,1,1.114-.692,4.678,4.678,0,0,1,1.413-.191,1.845,1.845,0,0,1,1.642.766,3.369,3.369,0,0,1,.5.977,5.921,5.921,0,0,1,.247,1.8Z" transform="translate(-170.907 -212.178)"/><path class="b" d="M265.112,287.288l12.647.023.057-33.13a12.283,12.283,0,0,0-.583-3.932,10.72,10.72,0,0,0-2.795-4.471,11.622,11.622,0,0,0-8.348-3.285,13.322,13.322,0,0,0-4.129.613,11.892,11.892,0,0,0-2.4,1.1,11.18,11.18,0,0,0-2.585,2.154,10.194,10.194,0,0,0-2.341-2.036,12.449,12.449,0,0,0-6.854-1.862,13.083,13.083,0,0,0-4.029.625,13.492,13.492,0,0,0-2.494,1.1c-.233.135-.459.272-.676.418l0-.61-12.824-.024-.074,43.257,12.8.018,0-1.718.051-28.224a3.823,3.823,0,0,1,.888-2.641,2.522,2.522,0,0,1,1.192-.83,2.766,2.766,0,0,1,.813-.132,2.887,2.887,0,0,1,2.343.826,2.824,2.824,0,0,1,.649,1.121,5.583,5.583,0,0,1,.227,1.664l-.047,29.937,12.712.026.056-29.938a3.646,3.646,0,0,1,.878-2.653,2.563,2.563,0,0,1,1.124-.688,4.547,4.547,0,0,1,1.408-.2,1.87,1.87,0,0,1,1.644.77,3.1,3.1,0,0,1,.5.977,5.726,5.726,0,0,1,.246,1.8Z" transform="translate(-174.907 -212.185)"/><path class="b" d="M227.5,287.1l.01-1.715.065-41.534-12.8-.017-.075,43.245Z" transform="translate(-176.005 -212.069)"/><path class="b" d="M227.6,231l-1.72-.005-11.087-.021-.018,12.031,12.8.025Z" transform="translate(-175.999 -213.156)"/><path class="b" d="M198.49,289.393a27.459,27.459,0,0,0,8.432-1.14,14.448,14.448,0,0,0,5.444-3.094c3.179-2.967,4.622-7.476,4.627-13.135a21.448,21.448,0,0,0-.864-6.567,11.317,11.317,0,0,0-.741-1.783,18.655,18.655,0,0,0-6.115-6.208l-10.483-7.287c-.846-.578-1.5-1.03-1.964-1.355-.238-.167-.414-.306-.548-.4-.063-.048-.115-.091-.152-.113a.235.235,0,0,0-.029-.029,4.286,4.286,0,0,1-.45-.447A3.215,3.215,0,0,1,195,246.7a6.4,6.4,0,0,1-.244-1.921,3.1,3.1,0,0,1,.859-2.436,2.718,2.718,0,0,1,1.086-.624,4.882,4.882,0,0,1,1.582-.215,4.538,4.538,0,0,1,3.246,1.194,3.671,3.671,0,0,1,1.027,1.583,4.379,4.379,0,0,1,.2,1.377l-.012,5.52,13.259.028.015-5.988a14.959,14.959,0,0,0-.688-4.619,13.114,13.114,0,0,0-4.506-6.326c-3.39-2.66-7.745-3.938-12.847-3.938a18.682,18.682,0,0,0-5.881.872,15.978,15.978,0,0,0-5.7,3.25,13.7,13.7,0,0,0-4.836,10.7,24.39,24.39,0,0,0,.923,7.377,12.252,12.252,0,0,0,.492,1.265,13.493,13.493,0,0,0,4.828,5.519l12.163,8.363a8.253,8.253,0,0,1,2.679,2.651,5.1,5.1,0,0,1,.4.923,7.951,7.951,0,0,1,.338,2.427,4.791,4.791,0,0,1-1.153,3.608,3.618,3.618,0,0,1-1.425.819,7.372,7.372,0,0,1-2.3.317,3.258,3.258,0,0,1-2.709-1.379,5.577,5.577,0,0,1-.93-1.728,6.584,6.584,0,0,1-.287-1.994l0-7.122-13.465-.026-.018,6.388a20.382,20.382,0,0,0,.92,6.33,14.336,14.336,0,0,0,3.721,6.03c3.132,3.028,7.5,4.466,12.749,4.466" transform="translate(-178.845 -213.21)"/><rect class="c" width="15.505" height="250.381" transform="matrix(0.002, -1, 1, 0.002, 3.441, 96.915)"/><path class="d" d="M395.376,297.244a16.148,16.148,0,0,1,.171-2.665,3.04,3.04,0,0,1,.573-1.4,2.14,2.14,0,0,1,1.085-.662,8.637,8.637,0,0,1,2.1-.182h4.795a4.021,4.021,0,0,1,2.6.639,2.949,2.949,0,0,1,.7,2.241l-1.2-.005a1.7,1.7,0,0,0-.511-1.4,2.778,2.778,0,0,0-1.767-.422h-2.139c-1.307,0-2.116,0-2.426,0a6.051,6.051,0,0,0-1.524.131,1.321,1.321,0,0,0-.711.473,2.374,2.374,0,0,0-.369,1.045,15.534,15.534,0,0,0-.109,2.146,17.994,17.994,0,0,0,.09,2.171,2.619,2.619,0,0,0,.324,1.047,1.219,1.219,0,0,0,.691.5,5.326,5.326,0,0,0,1.421.143l4.534-.009a5.092,5.092,0,0,0,1.506-.182,1.413,1.413,0,0,0,.8-.57,1.451,1.451,0,0,0,.2-.537,11.04,11.04,0,0,0,.066-1.466l-5.048-.021v-1.012l6.3.015c0,.03,0,.209.018.5s.014.467.014.505a4.377,4.377,0,0,1-.791,3,4.165,4.165,0,0,1-3.009.817c-.111,0-.81,0-2.092-.005s-2.124-.005-2.528-.005a7.525,7.525,0,0,1-2-.206,2.08,2.08,0,0,1-1.065-.689,3.062,3.062,0,0,1-.542-1.376,15.139,15.139,0,0,1-.158-2.557" transform="translate(-160.734 -207.97)"/><path class="d" d="M379.463,302l.017-9.691,1.984-.012,8.863,8.732.028-8.7,1.2,0-.016,9.7h-1.95l-8.9-8.759-.011,8.73Z" transform="translate(-162.079 -207.973)"/><rect class="e" width="9.716" height="1.169" transform="translate(210.902 94.029) rotate(-89.879)"/><path class="d" d="M358.775,293.312v-1.046l10.981.011v1.052l-4.9-.005-.014,8.657h-1.21v-8.657Z" transform="translate(-163.827 -207.975)"/><path class="d" d="M344.526,298.535c0-.375,0-.909.01-1.612v-1.653a2.757,2.757,0,0,1,.914-2.332,5.027,5.027,0,0,1,2.994-.684c.007.005.556,0,1.637,0s1.976-.007,2.667-.007a3.3,3.3,0,0,1,2.385.775,3.183,3.183,0,0,1,.775,2.365h-1.173a5.48,5.48,0,0,0-.051-.933,2.186,2.186,0,0,0-.15-.41,1.316,1.316,0,0,0-.69-.557,3.444,3.444,0,0,0-1.214-.192c-.147,0-.869.009-2.167.017s-2.04.012-2.218.012a4.023,4.023,0,0,0-1.387.2,1.538,1.538,0,0,0-.819.616,1.684,1.684,0,0,0-.224.532,5.018,5.018,0,0,0-.069.961c0,.245,0,.792,0,1.644s.005,1.367.005,1.555a2.043,2.043,0,0,0,.543,1.651,3.067,3.067,0,0,0,1.976.477h1.818c.894,0,1.666,0,2.315.011a7.025,7.025,0,0,0,1.148-.09,1.889,1.889,0,0,0,.728-.292,1.143,1.143,0,0,0,.358-.423,1.952,1.952,0,0,0,.151-.648v-.788h1.229a3.376,3.376,0,0,1-.8,2.616,5.188,5.188,0,0,1-3.141.662h-3.565a10.717,10.717,0,0,1-1.876-.119,3.117,3.117,0,0,1-1.062-.4,2.236,2.236,0,0,1-.794-1.08,5.829,5.829,0,0,1-.257-1.87" transform="translate(-165.032 -207.977)"/><path class="d" d="M331.948,298.748l6.629.009-3.325-5.6Zm-3.211,3.175,5.715-9.7h1.587l5.75,9.726-1.367-.007-1.25-2.142-7.827-.015-1.229,2.14h-1.38" transform="translate(-166.366 -207.979)"/><path class="d" d="M315.466,296.984l6.422.017a2.825,2.825,0,0,0,1.779-.4,2.014,2.014,0,0,0,.462-1.572,1.683,1.683,0,0,0-.476-1.4,3.047,3.047,0,0,0-1.783-.38l-6.4-.011,0,3.747m-1.241,4.914.031-9.712,7.869.011a8.172,8.172,0,0,1,1.7.15,2.165,2.165,0,0,1,.983.484,1.734,1.734,0,0,1,.464.823,6.016,6.016,0,0,1,.14,1.455,2.987,2.987,0,0,1-.381,1.744,2.32,2.32,0,0,1-1.528.656,2.3,2.3,0,0,1,1.307.57,1.648,1.648,0,0,1,.418,1.213l0,2.627-1.209-.008-.012-2.139a1.815,1.815,0,0,0-.414-1.39,2.484,2.484,0,0,0-1.579-.362l-6.551-.012-.012,3.89h-1.229" transform="translate(-167.593 -207.982)"/><path class="d" d="M299.532,293.211v-1.049l10.969.01v1.063l-4.887-.021-.013,8.671-1.217-.006.011-8.665Z" transform="translate(-168.835 -207.984)"/><path class="d" d="M283.757,301.843l.01-9.7,1.985-.011,8.864,8.739.027-8.708h1.2l-.016,9.7-1.947-.005-8.9-8.751-.017,8.741Z" transform="translate(-170.168 -207.986)"/><path class="d" d="M268.714,297.008a17.637,17.637,0,0,0,.085,2.115,2.577,2.577,0,0,0,.339,1.054,1.166,1.166,0,0,0,.65.482,5.245,5.245,0,0,0,1.351.145l4.879.01a5.182,5.182,0,0,0,1.452-.149,1.24,1.24,0,0,0,.7-.5,2.591,2.591,0,0,0,.364-1.111,16.283,16.283,0,0,0,.111-2.238,12.685,12.685,0,0,0-.105-1.981,2.3,2.3,0,0,0-.374-1.018,1.453,1.453,0,0,0-.757-.5,5.487,5.487,0,0,0-1.475-.142l-4.5-.015a5.453,5.453,0,0,0-1.486.149,1.4,1.4,0,0,0-.749.51,2.651,2.651,0,0,0-.375,1.067,15.8,15.8,0,0,0-.105,2.122m-1.285.04a17.29,17.29,0,0,1,.162-2.715,3.2,3.2,0,0,1,.521-1.4,1.854,1.854,0,0,1,.977-.638,7.259,7.259,0,0,1,1.927-.178h2.7c1.676.005,2.515.005,2.515.005a7.563,7.563,0,0,1,1.971.186,1.972,1.972,0,0,1,1.02.614,2.82,2.82,0,0,1,.527,1.273,13.7,13.7,0,0,1,.152,2.412,20.007,20.007,0,0,1-.163,2.928,3.278,3.278,0,0,1-.537,1.453,1.949,1.949,0,0,1-1.064.675,8.51,8.51,0,0,1-2.181.2c-.246,0-1.023,0-2.324-.014s-2.141-.024-2.52-.024a7.875,7.875,0,0,1-2.013-.2,1.887,1.887,0,0,1-1.029-.664,3.026,3.026,0,0,1-.5-1.32,16.321,16.321,0,0,1-.143-2.592" transform="translate(-171.548 -207.988)"/><path class="d" d="M252.217,298.379c0-.382.005-.916.005-1.611V295.1a2.726,2.726,0,0,1,.918-2.32,5.034,5.034,0,0,1,3-.687s.554,0,1.635,0,1.966,0,2.667,0a3.273,3.273,0,0,1,2.382.769,3.231,3.231,0,0,1,.777,2.367h-1.181a5.832,5.832,0,0,0-.048-.933,1.333,1.333,0,0,0-.146-.406,1.378,1.378,0,0,0-.69-.565,3.409,3.409,0,0,0-1.216-.187c-.14,0-.867.008-2.169.012s-2.041.011-2.215.011a3.689,3.689,0,0,0-1.384.2,1.58,1.58,0,0,0-.822.617,1.417,1.417,0,0,0-.219.528,4.608,4.608,0,0,0-.073.963c0,.244,0,.794,0,1.643s.009,1.369.009,1.548a2.1,2.1,0,0,0,.54,1.664,3.18,3.18,0,0,0,1.975.475h1.817c.893,0,1.669,0,2.319,0a5.343,5.343,0,0,0,1.145-.093,1.783,1.783,0,0,0,.736-.292,1,1,0,0,0,.35-.415,1.878,1.878,0,0,0,.156-.653v-.788l1.228.005a3.38,3.38,0,0,1-.8,2.612,5.122,5.122,0,0,1-3.143.675h-1.98c-.639,0-1.165,0-1.582,0a10.626,10.626,0,0,1-1.881-.13,2.732,2.732,0,0,1-1.054-.4,2.155,2.155,0,0,1-.8-1.087,5.611,5.611,0,0,1-.253-1.857" transform="translate(-172.834 -207.99)"/><path class="d" d="M231.58,301.752l.017-9.708h1.208l-.012,8.712,7.626.005-.005,1.011Z" transform="translate(-174.578 -207.994)"/><path class="d" d="M225.6,301.742l.021-9.712,1.168.005-.022,9.714Z" transform="translate(-175.083 -207.995)"/><path class="d" d="M209.765,292.02l1.378-.015,4.72,8.633,4.834-8.612,1.37.012-5.4,9.689h-1.612Z" transform="translate(-176.422 -207.998)"/><path class="d" d="M204.137,301.7l.026-9.713,1.168.008-.02,9.715Z" transform="translate(-176.898 -207.999)"/><path class="d" d="M189.057,298.271v-3.262a2.755,2.755,0,0,1,.916-2.333,4.97,4.97,0,0,1,3-.684c.01,0,.56-.009,1.635-.009s1.974,0,2.667,0a3.272,3.272,0,0,1,2.39.773,3.226,3.226,0,0,1,.773,2.37h-1.184a5.184,5.184,0,0,0-.044-.939,1.668,1.668,0,0,0-.146-.407,1.393,1.393,0,0,0-.683-.56,3.4,3.4,0,0,0-1.218-.187c-.146,0-.873,0-2.177.008s-2.036.017-2.215.012a4.12,4.12,0,0,0-1.383.2,1.67,1.67,0,0,0-.823.617,1.885,1.885,0,0,0-.22.539,4.721,4.721,0,0,0-.071.956c0,.246,0,.793.005,1.647,0,.839.005,1.365.005,1.544a2.1,2.1,0,0,0,.54,1.668,3.12,3.12,0,0,0,1.979.467c.315,0,.925.008,1.812.008h2.319a6.157,6.157,0,0,0,1.151-.087,1.9,1.9,0,0,0,.727-.3.993.993,0,0,0,.352-.416,1.906,1.906,0,0,0,.158-.65v-.793h1.219a3.378,3.378,0,0,1-.8,2.626,5.175,5.175,0,0,1-3.136.668c-.689-.008-1.34-.008-1.984-.008h-1.58a10.113,10.113,0,0,1-1.881-.128,2.741,2.741,0,0,1-1.056-.406,2.116,2.116,0,0,1-.8-1.084,5.631,5.631,0,0,1-.252-1.857" transform="translate(-178.172 -208)"/><path class="f" d="M230.451,237.6c23.863-11.969,47.968-18.493,73.192-19.687a175.451,175.451,0,0,1,48.393,4.38,167.951,167.951,0,0,1,40.79,15.593,1.37,1.37,0,1,1-1.3,2.413,165.714,165.714,0,0,0-40.123-15.347,172.672,172.672,0,0,0-47.631-4.3c-24.851,1.169-48.6,7.608-72.095,19.392a1.367,1.367,0,1,1-1.229-2.441" transform="translate(-174.736 -214.277)"/><path class="g" d="M382.214,272.786l.007-4.678,10.041.016-.011,5.409a7.483,7.483,0,0,0,1.6,4.792,4.952,4.952,0,0,0,4.045,2.022,6.746,6.746,0,0,0,4.936-1.62,6.473,6.473,0,0,0,1.666-4.83,8.49,8.49,0,0,0-.952-4.185,10.04,10.04,0,0,0-3.211-3.233l-12.16-8.358a11.891,11.891,0,0,1-4.24-4.82,19.636,19.636,0,0,1-1.26-7.926,12,12,0,0,1,4.248-9.42,15.314,15.314,0,0,1,10.454-3.7q7.236.02,11.79,3.578a11.56,11.56,0,0,1,4.533,9.595l-.009,4.263-9.826-.015.011-3.812a5.476,5.476,0,0,0-1.781-4.209,6.247,6.247,0,0,0-4.41-1.665,5.365,5.365,0,0,0-3.84,1.307,4.806,4.806,0,0,0-1.411,3.685,7.8,7.8,0,0,0,.324,2.409,4.843,4.843,0,0,0,1,1.8,8.058,8.058,0,0,0,.6.579c.218.2,1.168.877,2.852,2.029l10.494,7.281a17.259,17.259,0,0,1,5.562,5.593,16.532,16.532,0,0,1,1.412,7.562q-.023,8.087-4.081,11.885T397.879,287.9q-7.426-.016-11.55-3.989t-4.115-11.122" transform="translate(-161.846 -213.048)"/><path class="g" d="M351.981,285.582l.068-39.812,9.373.022-.076,3.661a7.192,7.192,0,0,1,3.539-3.748,11.833,11.833,0,0,1,5.754-1.45,9.847,9.847,0,0,1,7.143,2.795,9.539,9.539,0,0,1,2.866,7.175l-.051,31.411-9.354-.017.047-28.219a5.608,5.608,0,0,0-1.236-3.829,3.887,3.887,0,0,0-3.062-1.436,5.855,5.855,0,0,0-4.18,1.31,5.12,5.12,0,0,0-1.413,3.939l-.051,28.221-9.367-.023" transform="translate(-164.402 -212.034)"/><path class="g" d="M333.316,270.21q-.013,5,.86,7.1c.581,1.4,1.429,2.1,2.565,2.1a3.066,3.066,0,0,0,1.4-.242,2.141,2.141,0,0,0,.8-.776,8.066,8.066,0,0,0,.967-3.028,34.811,34.811,0,0,0,.324-5.148l.015-9.072a40.675,40.675,0,0,0-.236-4.965,9.286,9.286,0,0,0-.752-2.966,2.441,2.441,0,0,0-.852-.97,2.749,2.749,0,0,0-1.426-.3,3.267,3.267,0,0,0-1.582.309,2.462,2.462,0,0,0-.95,1.006,8.709,8.709,0,0,0-.837,2.951,36.386,36.386,0,0,0-.279,4.924l-.017,9.079m-9.362-.619.012-7.869a29.1,29.1,0,0,1,1.285-9.248,11.25,11.25,0,0,1,3.768-5.6,8.789,8.789,0,0,1,2.757-1.365,15.48,15.48,0,0,1,4.2-.448h1.691c4.183.007,7.238,1.434,9.154,4.254s2.874,6.977,2.858,12.453l-.01,7.861q-.013,8.464-2.931,12.629c-1.946,2.776-4.986,4.167-9.144,4.159H335.9q-6.331-.013-9.144-4.145t-2.8-12.684" transform="translate(-166.77 -211.965)"/><path class="g" d="M276.6,285.457l.063-39.817,9.37.012-.074,3.994a6.629,6.629,0,0,1,3.343-4.016,11.207,11.207,0,0,1,5.673-1.505,10.612,10.612,0,0,1,5.923,1.583,7.154,7.154,0,0,1,3.153,3.905,9.034,9.034,0,0,1,3.6-3.994,10.53,10.53,0,0,1,5.63-1.462,9.917,9.917,0,0,1,7.161,2.795,9.558,9.558,0,0,1,2.859,7.171l-.054,31.417-9.212-.012.042-28.231a6.011,6.011,0,0,0-1.1-3.827,3.586,3.586,0,0,0-2.991-1.438,4.986,4.986,0,0,0-3.777,1.414,5.31,5.31,0,0,0-1.362,3.836l-.048,28.226-9.29-.021.053-28.221a5.53,5.53,0,0,0-1.348-3.973,4.589,4.589,0,0,0-3.626-1.355,4.264,4.264,0,0,0-3.27,1.549,5.594,5.594,0,0,0-1.3,3.764l-.05,28.224-9.365-.017" transform="translate(-170.773 -212.045)"/><path class="g" d="M229.27,285.376l.068-39.821,9.364.018-.077,3.992a6.657,6.657,0,0,1,3.349-4.015,11.084,11.084,0,0,1,5.67-1.506,10.687,10.687,0,0,1,5.92,1.582,7.177,7.177,0,0,1,3.159,3.9,9.011,9.011,0,0,1,3.6-3.992,10.62,10.62,0,0,1,5.636-1.467,9.92,9.92,0,0,1,7.152,2.8,9.552,9.552,0,0,1,2.863,7.172l-.051,31.418-9.224-.021.053-28.227a6.1,6.1,0,0,0-1.1-3.819,3.593,3.593,0,0,0-3-1.443,4.94,4.94,0,0,0-3.771,1.41,5.33,5.33,0,0,0-1.363,3.845l-.051,28.22-9.281-.017.049-28.222a5.554,5.554,0,0,0-1.348-3.979,4.566,4.566,0,0,0-3.618-1.35,4.256,4.256,0,0,0-3.282,1.558,5.554,5.554,0,0,0-1.3,3.757l-.05,28.226-9.367-.021" transform="translate(-174.773 -212.051)"/><path class="g" d="M216.368,241.165l.016-8.606,9.361.022-.015,8.6Zm-.079,45.16.063-39.819,9.368.017-.066,39.819-9.365-.017" transform="translate(-175.871 -213.022)"/><path class="g" d="M182.689,272.444l.008-4.674,10.041.009-.011,5.413a7.42,7.42,0,0,0,1.6,4.787,4.95,4.95,0,0,0,4.042,2.027,6.715,6.715,0,0,0,4.931-1.62,6.467,6.467,0,0,0,1.666-4.834,8.37,8.37,0,0,0-.948-4.185,9.912,9.912,0,0,0-3.213-3.23l-12.162-8.363a11.861,11.861,0,0,1-4.234-4.816,19.486,19.486,0,0,1-1.26-7.93,11.99,11.99,0,0,1,4.247-9.417,15.308,15.308,0,0,1,10.447-3.7q7.251.026,11.8,3.582a11.519,11.519,0,0,1,4.532,9.592l-.011,4.264-9.82-.009.007-3.816a5.5,5.5,0,0,0-1.778-4.211,6.217,6.217,0,0,0-4.411-1.66,5.36,5.36,0,0,0-3.847,1.308,4.817,4.817,0,0,0-1.4,3.683,8.148,8.148,0,0,0,.312,2.408,4.91,4.91,0,0,0,1.015,1.793,5.707,5.707,0,0,0,.589.589c.214.2,1.172.87,2.857,2.024l10.49,7.285a17.186,17.186,0,0,1,5.569,5.6,16.56,16.56,0,0,1,1.4,7.555q-.016,8.1-4.079,11.88t-12.705,3.773q-7.433-.008-11.555-3.981t-4.114-11.118" transform="translate(-178.711 -213.077)"/></svg>